G04 #@! TF.FileFunction,Legend,Top*
%FSLAX46Y46*%
G04 Gerber Fmt 4.6, Leading zero omitted, Abs format (unit mm)*
G04 Created by KiCad (PCBNEW 4.0.6) date 10/14/17 13:06:48*
%MOMM*%
%LPD*%
G01*
G04 APERTURE LIST*
%ADD10C,0.100000*%
%ADD11C,0.300000*%
G04 APERTURE END LIST*
D10*
D11*
X132283572Y-97857571D02*
X133140715Y-97857571D01*
X132712144Y-99357571D02*
X132712144Y-97857571D01*
X133640715Y-99357571D02*
X133640715Y-97857571D01*
X134283572Y-99357571D02*
X134283572Y-98571857D01*
X134212143Y-98429000D01*
X134069286Y-98357571D01*
X133855001Y-98357571D01*
X133712143Y-98429000D01*
X133640715Y-98500429D01*
X134997858Y-99357571D02*
X134997858Y-98357571D01*
X134997858Y-98643286D02*
X135069286Y-98500429D01*
X135140715Y-98429000D01*
X135283572Y-98357571D01*
X135426429Y-98357571D01*
X136140715Y-99357571D02*
X135997857Y-99286143D01*
X135926429Y-99214714D01*
X135855000Y-99071857D01*
X135855000Y-98643286D01*
X135926429Y-98500429D01*
X135997857Y-98429000D01*
X136140715Y-98357571D01*
X136355000Y-98357571D01*
X136497857Y-98429000D01*
X136569286Y-98500429D01*
X136640715Y-98643286D01*
X136640715Y-99071857D01*
X136569286Y-99214714D01*
X136497857Y-99286143D01*
X136355000Y-99357571D01*
X136140715Y-99357571D01*
X137926429Y-98357571D02*
X137926429Y-99357571D01*
X137283572Y-98357571D02*
X137283572Y-99143286D01*
X137355000Y-99286143D01*
X137497858Y-99357571D01*
X137712143Y-99357571D01*
X137855000Y-99286143D01*
X137926429Y-99214714D01*
X139283572Y-98357571D02*
X139283572Y-99571857D01*
X139212143Y-99714714D01*
X139140715Y-99786143D01*
X138997858Y-99857571D01*
X138783572Y-99857571D01*
X138640715Y-99786143D01*
X139283572Y-99286143D02*
X139140715Y-99357571D01*
X138855001Y-99357571D01*
X138712143Y-99286143D01*
X138640715Y-99214714D01*
X138569286Y-99071857D01*
X138569286Y-98643286D01*
X138640715Y-98500429D01*
X138712143Y-98429000D01*
X138855001Y-98357571D01*
X139140715Y-98357571D01*
X139283572Y-98429000D01*
X139997858Y-99357571D02*
X139997858Y-97857571D01*
X140640715Y-99357571D02*
X140640715Y-98571857D01*
X140569286Y-98429000D01*
X140426429Y-98357571D01*
X140212144Y-98357571D01*
X140069286Y-98429000D01*
X139997858Y-98500429D01*
X143140715Y-98357571D02*
X143140715Y-99357571D01*
X142783572Y-97786143D02*
X142426429Y-98857571D01*
X143355001Y-98857571D01*
X144212143Y-97857571D02*
X144355000Y-97857571D01*
X144497857Y-97929000D01*
X144569286Y-98000429D01*
X144640715Y-98143286D01*
X144712143Y-98429000D01*
X144712143Y-98786143D01*
X144640715Y-99071857D01*
X144569286Y-99214714D01*
X144497857Y-99286143D01*
X144355000Y-99357571D01*
X144212143Y-99357571D01*
X144069286Y-99286143D01*
X143997857Y-99214714D01*
X143926429Y-99071857D01*
X143855000Y-98786143D01*
X143855000Y-98429000D01*
X143926429Y-98143286D01*
X143997857Y-98000429D01*
X144069286Y-97929000D01*
X144212143Y-97857571D01*
X146783571Y-97857571D02*
X147069285Y-97857571D01*
X147212143Y-97929000D01*
X147355000Y-98071857D01*
X147426428Y-98357571D01*
X147426428Y-98857571D01*
X147355000Y-99143286D01*
X147212143Y-99286143D01*
X147069285Y-99357571D01*
X146783571Y-99357571D01*
X146640714Y-99286143D01*
X146497857Y-99143286D01*
X146426428Y-98857571D01*
X146426428Y-98357571D01*
X146497857Y-98071857D01*
X146640714Y-97929000D01*
X146783571Y-97857571D01*
X148069286Y-99357571D02*
X148069286Y-97857571D01*
X148712143Y-99357571D02*
X148712143Y-98571857D01*
X148640714Y-98429000D01*
X148497857Y-98357571D01*
X148283572Y-98357571D01*
X148140714Y-98429000D01*
X148069286Y-98500429D01*
X149426429Y-99357571D02*
X149426429Y-98357571D01*
X149426429Y-98500429D02*
X149497857Y-98429000D01*
X149640715Y-98357571D01*
X149855000Y-98357571D01*
X149997857Y-98429000D01*
X150069286Y-98571857D01*
X150069286Y-99357571D01*
X150069286Y-98571857D02*
X150140715Y-98429000D01*
X150283572Y-98357571D01*
X150497857Y-98357571D01*
X150640715Y-98429000D01*
X150712143Y-98571857D01*
X150712143Y-99357571D01*
M02*
