G04 #@! TF.FileFunction,Legend,Top*
%FSLAX46Y46*%
G04 Gerber Fmt 4.6, Leading zero omitted, Abs format (unit mm)*
G04 Created by KiCad (PCBNEW 4.0.6) date 10/14/17 12:59:44*
%MOMM*%
%LPD*%
G01*
G04 APERTURE LIST*
%ADD10C,0.100000*%
%ADD11C,0.300000*%
G04 APERTURE END LIST*
D10*
D11*
X105613572Y-97603571D02*
X106470715Y-97603571D01*
X106042144Y-99103571D02*
X106042144Y-97603571D01*
X106970715Y-99103571D02*
X106970715Y-97603571D01*
X107613572Y-99103571D02*
X107613572Y-98317857D01*
X107542143Y-98175000D01*
X107399286Y-98103571D01*
X107185001Y-98103571D01*
X107042143Y-98175000D01*
X106970715Y-98246429D01*
X108327858Y-99103571D02*
X108327858Y-98103571D01*
X108327858Y-98389286D02*
X108399286Y-98246429D01*
X108470715Y-98175000D01*
X108613572Y-98103571D01*
X108756429Y-98103571D01*
X109470715Y-99103571D02*
X109327857Y-99032143D01*
X109256429Y-98960714D01*
X109185000Y-98817857D01*
X109185000Y-98389286D01*
X109256429Y-98246429D01*
X109327857Y-98175000D01*
X109470715Y-98103571D01*
X109685000Y-98103571D01*
X109827857Y-98175000D01*
X109899286Y-98246429D01*
X109970715Y-98389286D01*
X109970715Y-98817857D01*
X109899286Y-98960714D01*
X109827857Y-99032143D01*
X109685000Y-99103571D01*
X109470715Y-99103571D01*
X111256429Y-98103571D02*
X111256429Y-99103571D01*
X110613572Y-98103571D02*
X110613572Y-98889286D01*
X110685000Y-99032143D01*
X110827858Y-99103571D01*
X111042143Y-99103571D01*
X111185000Y-99032143D01*
X111256429Y-98960714D01*
X112613572Y-98103571D02*
X112613572Y-99317857D01*
X112542143Y-99460714D01*
X112470715Y-99532143D01*
X112327858Y-99603571D01*
X112113572Y-99603571D01*
X111970715Y-99532143D01*
X112613572Y-99032143D02*
X112470715Y-99103571D01*
X112185001Y-99103571D01*
X112042143Y-99032143D01*
X111970715Y-98960714D01*
X111899286Y-98817857D01*
X111899286Y-98389286D01*
X111970715Y-98246429D01*
X112042143Y-98175000D01*
X112185001Y-98103571D01*
X112470715Y-98103571D01*
X112613572Y-98175000D01*
X113327858Y-99103571D02*
X113327858Y-97603571D01*
X113970715Y-99103571D02*
X113970715Y-98317857D01*
X113899286Y-98175000D01*
X113756429Y-98103571D01*
X113542144Y-98103571D01*
X113399286Y-98175000D01*
X113327858Y-98246429D01*
X116542144Y-97603571D02*
X115827858Y-97603571D01*
X115756429Y-98317857D01*
X115827858Y-98246429D01*
X115970715Y-98175000D01*
X116327858Y-98175000D01*
X116470715Y-98246429D01*
X116542144Y-98317857D01*
X116613572Y-98460714D01*
X116613572Y-98817857D01*
X116542144Y-98960714D01*
X116470715Y-99032143D01*
X116327858Y-99103571D01*
X115970715Y-99103571D01*
X115827858Y-99032143D01*
X115756429Y-98960714D01*
X117542143Y-97603571D02*
X117685000Y-97603571D01*
X117827857Y-97675000D01*
X117899286Y-97746429D01*
X117970715Y-97889286D01*
X118042143Y-98175000D01*
X118042143Y-98532143D01*
X117970715Y-98817857D01*
X117899286Y-98960714D01*
X117827857Y-99032143D01*
X117685000Y-99103571D01*
X117542143Y-99103571D01*
X117399286Y-99032143D01*
X117327857Y-98960714D01*
X117256429Y-98817857D01*
X117185000Y-98532143D01*
X117185000Y-98175000D01*
X117256429Y-97889286D01*
X117327857Y-97746429D01*
X117399286Y-97675000D01*
X117542143Y-97603571D01*
X120113571Y-97603571D02*
X120399285Y-97603571D01*
X120542143Y-97675000D01*
X120685000Y-97817857D01*
X120756428Y-98103571D01*
X120756428Y-98603571D01*
X120685000Y-98889286D01*
X120542143Y-99032143D01*
X120399285Y-99103571D01*
X120113571Y-99103571D01*
X119970714Y-99032143D01*
X119827857Y-98889286D01*
X119756428Y-98603571D01*
X119756428Y-98103571D01*
X119827857Y-97817857D01*
X119970714Y-97675000D01*
X120113571Y-97603571D01*
X121399286Y-99103571D02*
X121399286Y-97603571D01*
X122042143Y-99103571D02*
X122042143Y-98317857D01*
X121970714Y-98175000D01*
X121827857Y-98103571D01*
X121613572Y-98103571D01*
X121470714Y-98175000D01*
X121399286Y-98246429D01*
X122756429Y-99103571D02*
X122756429Y-98103571D01*
X122756429Y-98246429D02*
X122827857Y-98175000D01*
X122970715Y-98103571D01*
X123185000Y-98103571D01*
X123327857Y-98175000D01*
X123399286Y-98317857D01*
X123399286Y-99103571D01*
X123399286Y-98317857D02*
X123470715Y-98175000D01*
X123613572Y-98103571D01*
X123827857Y-98103571D01*
X123970715Y-98175000D01*
X124042143Y-98317857D01*
X124042143Y-99103571D01*
M02*
