G04 #@! TF.FileFunction,Copper,L1,Top,Mixed*
%FSLAX46Y46*%
G04 Gerber Fmt 4.6, Leading zero omitted, Abs format (unit mm)*
G04 Created by KiCad (PCBNEW 4.0.6) date 10/14/17 12:55:17*
%MOMM*%
%LPD*%
G01*
G04 APERTURE LIST*
%ADD10C,0.100000*%
%ADD11R,2.921000X2.921000*%
%ADD12R,7.620000X2.921000*%
%ADD13C,0.685800*%
%ADD14C,2.921000*%
%ADD15C,0.152400*%
G04 APERTURE END LIST*
D10*
D11*
X156159200Y-84988400D03*
X156159200Y-88544400D03*
X163372800Y-84988400D03*
X163372800Y-88544400D03*
X157632400Y-88544400D03*
X161188400Y-88544400D03*
X142011400Y-88544400D03*
X142011400Y-92100400D03*
X149047200Y-92100400D03*
X149047200Y-88544400D03*
X140208000Y-88544400D03*
X136652000Y-88544400D03*
X156083000Y-88544400D03*
X156083000Y-92100400D03*
X149047200Y-84988400D03*
X149047200Y-88544400D03*
X143687800Y-88544400D03*
X147243800Y-88544400D03*
X163322000Y-88544400D03*
X163322000Y-92100400D03*
X141986000Y-84988400D03*
X141986000Y-88544400D03*
X150850600Y-88544400D03*
X154406600Y-88544400D03*
X165658800Y-88544400D03*
X169214800Y-88544400D03*
D12*
X173380400Y-88544400D03*
X131368800Y-88544400D03*
D13*
X141986000Y-84988400D03*
X149047200Y-84988400D03*
X156083000Y-92100400D03*
X149047200Y-92100400D03*
X142011400Y-92100400D03*
X163372800Y-84988400D03*
X156159200Y-84988400D03*
X163322000Y-92100400D03*
D14*
X169214800Y-88544400D02*
X175768000Y-88544400D01*
D15*
X175996600Y-88544400D02*
X176022000Y-88519000D01*
D14*
X136652000Y-88544400D02*
X128968501Y-88544400D01*
M02*
